<svg width="17" height="17" viewBox="0 0 17 17" fill="none" xmlns="http://www.w3.org/2000/svg">
<g clip-path="url(#clip0_0_51)">
<rect width="17" height="17" fill="#427EF2"/>
<path fill-rule="evenodd" clip-rule="evenodd" d="M0.708313 2.01029C0.708313 1.665 0.845479 1.33386 1.08964 1.0897C1.33379 0.845542 1.66494 0.708376 2.01023 0.708376H14.9883C15.1594 0.708096 15.3289 0.74157 15.4871 0.806881C15.6452 0.872192 15.789 0.968058 15.91 1.08899C16.0311 1.20992 16.1271 1.35354 16.1926 1.51163C16.2581 1.66972 16.2917 1.83918 16.2916 2.01029V14.9884C16.2918 15.1595 16.2583 15.329 16.1929 15.4872C16.1275 15.6454 16.0316 15.7891 15.9106 15.9101C15.7896 16.0312 15.6459 16.1272 15.4878 16.1927C15.3297 16.2581 15.1602 16.2918 14.989 16.2917H2.01023C1.8392 16.2917 1.66985 16.258 1.51184 16.1925C1.35384 16.1271 1.21029 16.0311 1.08939 15.9101C0.968482 15.7892 0.872598 15.6456 0.807212 15.4875C0.741827 15.3295 0.70822 15.1601 0.708313 14.9891V2.01029ZM6.87648 6.64988H8.98661V7.70954C9.29119 7.10038 10.0704 6.55213 11.2412 6.55213C13.4859 6.55213 14.0179 7.7655 14.0179 9.99179V14.1157H11.7463V10.499C11.7463 9.23104 11.4417 8.51563 10.6682 8.51563C9.59506 8.51563 9.14881 9.287 9.14881 10.499V14.1157H6.87648V6.64988ZM2.98065 14.0187H5.25298V6.55213H2.98065V14.018V14.0187ZM5.57811 4.11688C5.58239 4.31144 5.54777 4.50489 5.47627 4.68589C5.40478 4.86689 5.29785 5.03178 5.16177 5.1709C5.02568 5.31001 4.86318 5.42054 4.6838 5.49601C4.50442 5.57147 4.31177 5.61034 4.11717 5.61034C3.92256 5.61034 3.72991 5.57147 3.55053 5.49601C3.37115 5.42054 3.20865 5.31001 3.07257 5.1709C2.93648 5.03178 2.82955 4.86689 2.75806 4.68589C2.68657 4.50489 2.65195 4.31144 2.65623 4.11688C2.66464 3.73498 2.82225 3.37156 3.09532 3.10444C3.36838 2.83733 3.73518 2.68775 4.11717 2.68775C4.49916 2.68775 4.86596 2.83733 5.13902 3.10444C5.41208 3.37156 5.5697 3.73498 5.57811 4.11688Z" fill="white"/>
</g>
<defs>
<clipPath id="clip0_0_51">
<rect width="17" height="17" fill="white"/>
</clipPath>
</defs>
</svg>
