<svg width="17" height="17" viewBox="0 0 17 17" fill="none" xmlns="http://www.w3.org/2000/svg">
<rect width="17" height="17" fill="white"/>
<path d="M16.7471 3.49708C16.1557 3.75916 15.5203 3.93624 14.8523 4.01628C15.5415 3.60389 16.0572 2.95482 16.303 2.1902C15.6555 2.57482 14.9468 2.84555 14.2077 2.99062C13.7108 2.45998 13.0525 2.10827 12.3351 1.99008C11.6178 1.87189 10.8815 1.99384 10.2405 2.337C9.59959 2.68016 9.08987 3.22533 8.79051 3.88787C8.49116 4.5504 8.41891 5.29323 8.58499 6.00103C7.27293 5.93516 5.98939 5.59413 4.81766 5.00009C3.64594 4.40605 2.61221 3.57227 1.78357 2.55287C1.50024 3.04162 1.33732 3.60828 1.33732 4.21178C1.33701 4.75507 1.47079 5.29004 1.72682 5.76922C1.98284 6.2484 2.35319 6.65698 2.80499 6.9587C2.28102 6.94203 1.76861 6.80045 1.3104 6.54574V6.58824C1.31035 7.35022 1.57393 8.08876 2.05641 8.67853C2.53889 9.2683 3.21056 9.67298 3.95745 9.82391C3.47138 9.95546 2.96177 9.97483 2.46711 9.88058C2.67784 10.5362 3.08832 11.1096 3.64108 11.5203C4.19385 11.9311 4.86122 12.1587 5.54978 12.1713C4.38091 13.0889 2.93737 13.5866 1.45136 13.5844C1.18813 13.5845 0.925125 13.5691 0.663696 13.5384C2.17208 14.5082 3.92794 15.0229 5.7212 15.0209C11.7916 15.0209 15.1102 9.9932 15.1102 5.6327C15.1102 5.49103 15.1066 5.34795 15.1002 5.20628C15.7457 4.73947 16.3029 4.16142 16.7457 3.4992L16.7471 3.49708Z" fill="#427EF2"/>
</svg>
