<svg width="17" height="17" viewBox="0 0 17 17" fill="none" xmlns="http://www.w3.org/2000/svg">
<g clip-path="url(#clip0_0_49)">
<rect width="17" height="17" fill="#427EF2"/>
<path d="M17 8.55215C17 3.82827 13.1941 -0.000976562 8.49999 -0.000976562C3.80374 8.59376e-05 -0.00213623 3.82827 -0.00213623 8.55321C-0.00213623 12.8213 3.10674 16.3594 7.16974 17.0011V11.0246H5.01286V8.55321H7.17186V6.66727C7.17186 4.52421 8.44155 3.34059 10.3827 3.34059C11.3135 3.34059 12.2857 3.5074 12.2857 3.5074V5.61115H11.2136C10.1586 5.61115 9.82917 6.27096 9.82917 6.94777V8.55215H12.1858L11.8097 11.0235H9.82811V17.0001C13.8911 16.3583 17 12.8202 17 8.55215Z" fill="white"/>
</g>
<defs>
<clipPath id="clip0_0_49">
<rect width="17" height="17" fill="white"/>
</clipPath>
</defs>
</svg>
