<svg width="17" height="17" viewBox="0 0 17 17" fill="none" xmlns="http://www.w3.org/2000/svg">
<rect width="17" height="17" fill="#0D0C0D" fill-opacity="0.54"/>
<path fill-rule="evenodd" clip-rule="evenodd" d="M5.57937 0.04675C6.41025 0.00849999 6.67517 0 8.79167 0C10.9082 0 11.1731 0.00920832 12.0033 0.04675C12.8334 0.0842917 13.4001 0.21675 13.8959 0.408708C14.4151 0.604917 14.8862 0.911625 15.2757 1.30829C15.6724 1.69717 15.9784 2.1675 16.1739 2.68742C16.3666 3.18325 16.4983 3.74992 16.5366 4.57867C16.5748 5.41096 16.5833 5.67587 16.5833 7.79167C16.5833 9.90817 16.5741 10.1731 16.5366 11.004C16.499 11.8327 16.3666 12.3994 16.1739 12.8952C15.9784 13.4152 15.6719 13.8863 15.2757 14.2757C14.8862 14.6724 14.4151 14.9784 13.8959 15.1739C13.4001 15.3666 12.8334 15.4983 12.0047 15.5366C11.1731 15.5748 10.9082 15.5833 8.79167 15.5833C6.67517 15.5833 6.41025 15.5741 5.57937 15.5366C4.75063 15.499 4.18396 15.3666 3.68812 15.1739C3.16815 14.9784 2.69704 14.6719 2.30758 14.2757C1.91119 13.8866 1.60443 13.4158 1.40871 12.8959C1.21675 12.4001 1.085 11.8334 1.04675 11.0047C1.0085 10.1724 1 9.90746 1 7.79167C1 5.67517 1.00921 5.41025 1.04675 4.58008C1.08429 3.74992 1.21675 3.18325 1.40871 2.68742C1.60472 2.16756 1.91171 1.69668 2.30829 1.30758C2.6972 0.911272 3.16783 0.604522 3.68742 0.408708C4.18325 0.21675 4.74992 0.085 5.57867 0.04675H5.57937ZM11.9402 1.44925C11.1185 1.41171 10.872 1.40392 8.79167 1.40392C6.71129 1.40392 6.46479 1.41171 5.64312 1.44925C4.88308 1.48396 4.47083 1.61075 4.196 1.71771C3.83262 1.85937 3.57267 2.02725 3.29996 2.29996C3.04145 2.55145 2.8425 2.85762 2.71771 3.196C2.61075 3.47083 2.48396 3.88308 2.44925 4.64312C2.41171 5.46479 2.40392 5.71129 2.40392 7.79167C2.40392 9.87204 2.41171 10.1185 2.44925 10.9402C2.48396 11.7002 2.61075 12.1125 2.71771 12.3873C2.84237 12.7252 3.04142 13.0319 3.29996 13.2834C3.55142 13.5419 3.85812 13.741 4.196 13.8656C4.47083 13.9726 4.88308 14.0994 5.64312 14.1341C6.46479 14.1716 6.71058 14.1794 8.79167 14.1794C10.8727 14.1794 11.1185 14.1716 11.9402 14.1341C12.7002 14.0994 13.1125 13.9726 13.3873 13.8656C13.7507 13.724 14.0107 13.5561 14.2834 13.2834C14.5419 13.0319 14.741 12.7252 14.8656 12.3873C14.9726 12.1125 15.0994 11.7002 15.1341 10.9402C15.1716 10.1185 15.1794 9.87204 15.1794 7.79167C15.1794 5.71129 15.1716 5.46479 15.1341 4.64312C15.0994 3.88308 14.9726 3.47083 14.8656 3.196C14.724 2.83262 14.5561 2.57267 14.2834 2.29996C14.0319 2.04147 13.7257 1.84252 13.3873 1.71771C13.1125 1.61075 12.7002 1.48396 11.9402 1.44925ZM7.79646 10.1936C8.35226 10.425 8.97114 10.4562 9.54741 10.282C10.1237 10.1077 10.6216 9.73882 10.9561 9.23826C11.2905 8.73769 11.4409 8.13653 11.3814 7.53745C11.3219 6.93836 11.0562 6.37852 10.6298 5.95354C10.358 5.68188 10.0293 5.47387 9.6674 5.34448C9.30553 5.21509 8.91947 5.16755 8.53702 5.20527C8.15456 5.24299 7.78523 5.36504 7.45561 5.56263C7.12599 5.76023 6.84428 6.02844 6.63076 6.34798C6.41723 6.66751 6.27722 7.03041 6.22078 7.41056C6.16435 7.7907 6.1929 8.17862 6.30438 8.54641C6.41587 8.91419 6.60751 9.25268 6.86551 9.53751C7.12351 9.82234 7.44146 10.0464 7.79646 10.1936ZM5.95975 4.95975C6.33164 4.58786 6.77314 4.29286 7.25904 4.09159C7.74495 3.89032 8.26573 3.78673 8.79167 3.78673C9.3176 3.78673 9.83839 3.89032 10.3243 4.09159C10.8102 4.29286 11.2517 4.58786 11.6236 4.95975C11.9955 5.33164 12.2905 5.77314 12.4917 6.25904C12.693 6.74495 12.7966 7.26573 12.7966 7.79167C12.7966 8.3176 12.693 8.83839 12.4917 9.32429C12.2905 9.81019 11.9955 10.2517 11.6236 10.6236C10.8725 11.3747 9.85384 11.7966 8.79167 11.7966C7.72949 11.7966 6.71082 11.3747 5.95975 10.6236C5.20868 9.87251 4.78673 8.85384 4.78673 7.79167C4.78673 6.72949 5.20868 5.71082 5.95975 4.95975ZM13.6848 4.38317C13.777 4.29623 13.8508 4.19169 13.9018 4.07573C13.9528 3.95977 13.9801 3.83475 13.9819 3.70808C13.9838 3.5814 13.9602 3.45564 13.9125 3.33824C13.8649 3.22084 13.7942 3.11419 13.7046 3.02461C13.6151 2.93503 13.5084 2.86433 13.391 2.8167C13.2736 2.76907 13.1479 2.74548 13.0212 2.74733C12.8945 2.74918 12.7695 2.77642 12.6535 2.82745C12.5376 2.87848 12.433 2.95226 12.3461 3.04442C12.177 3.22365 12.0844 3.46171 12.088 3.70808C12.0916 3.95444 12.1911 4.18971 12.3653 4.36393C12.5395 4.53815 12.7748 4.63762 13.0212 4.64121C13.2675 4.6448 13.5056 4.55224 13.6848 4.38317Z" fill="white"/>
</svg>
