<svg width="24" height="17" viewBox="0 0 24 17" fill="none" xmlns="http://www.w3.org/2000/svg">
<path d="M23.4704 2.6621C23.3327 2.14756 23.0642 1.67847 22.6915 1.30154C22.3188 0.924612 21.855 0.652996 21.3463 0.513741C19.4838 0 11.988 0 11.988 0C11.988 0 4.49184 0.0155506 2.62937 0.529291C2.12063 0.668555 1.65684 0.940185 1.28417 1.31713C0.911512 1.69408 0.642987 2.16319 0.505339 2.67775C-0.0580142 6.02474 -0.276549 11.1248 0.520808 14.3379C0.65847 14.8524 0.927002 15.3215 1.29966 15.6985C1.67232 16.0754 2.13611 16.347 2.64484 16.4863C4.50731 17 12.0033 17 12.0033 17C12.0033 17 19.4992 17 21.3616 16.4863C21.8703 16.347 22.3342 16.0754 22.7068 15.6985C23.0795 15.3215 23.3481 14.8525 23.4857 14.3379C24.0799 10.9862 24.263 5.88934 23.4704 2.6622V2.6621Z" fill="#FF0000"/>
</svg>
